# xmcd
#
# Track frame offsets:
#	150
#	13434
#	29995
#	41124
#	56698
#	69195
#	86151
#	104417
#	119612
#	131106
#	147085
#
# Disc length: 2222 seconds
#
# Revision: 0
# Processed by: cddbd v1.5.2PL0 Copyright (c) Steve Scherf et al.
# Submitted via: audiograbber 1.83.01
#
DISCID=ac08ac0b
DTITLE=Lampco Records - Lampco Records 002
DYEAR=2007
DGENRE=Country
TTITLE0=Single Girl Blues - Kimberly Glover
TTITLE1=Daddy Dosen´t Live Here Anymore - Kimberly Glover
TTITLE2=Rodeo Romeo - Kimberly Glover
TTITLE3=I Can Feel You Touchin Her - Kimberly Glover
TTITLE4=Six Days On The Road - Kimberly Glover
TTITLE5=Don´t Look Over My Shoulder - Kimberly Glover
TTITLE6=Sweet Disposition - Kimberly Glover
TTITLE7=Shadow Of Night - Kimberly Glover
TTITLE8=Pocket Full Of 50´s - Kimberly Glover
TTITLE9=I Got The Blues - Kimberly Glover
TTITLE10=A Hank Williams Song - Kimberly Glover
EXTD=
EXTT0=
EXTT1=
EXTT2=
EXTT3=
EXTT4=
EXTT5=
EXTT6=
EXTT7=
EXTT8=
EXTT9=
EXTT10=
PLAYORDER=
